<mxfile host="app.diagrams.net" modified="2023-04-29T16:58:25.533Z" agent="Mozilla/5.0 (Windows NT 10.0; Win64; x64; rv:109.0) Gecko/20100101 Firefox/112.0" etag="Df4y2RTMSes67rFyr_5z" version="21.2.3" type="device">
  <diagram name="Page-1" id="lkr-BBM3ICJieEtdHAA6">
    <mxGraphModel dx="2465" dy="1928" grid="1" gridSize="10" guides="1" tooltips="1" connect="1" arrows="1" fold="1" page="1" pageScale="1" pageWidth="850" pageHeight="1100" math="0" shadow="0">
      <root>
        <mxCell id="0" />
        <mxCell id="1" parent="0" />
        <mxCell id="l3nvB3DhA1se58afsrXY-289" value="&lt;div&gt;&lt;font style=&quot;font-size: 18px;&quot;&gt;Легенда&lt;br&gt;&lt;/font&gt;&lt;/div&gt;&lt;div&gt;&lt;font style=&quot;font-size: 18px;&quot;&gt;&lt;br&gt;&lt;/font&gt;&lt;/div&gt;&lt;div&gt;&lt;font style=&quot;font-size: 18px;&quot;&gt;&lt;br&gt;&lt;/font&gt;&lt;/div&gt;&lt;div&gt;&lt;font style=&quot;font-size: 18px;&quot;&gt;&lt;br&gt;&lt;/font&gt;&lt;/div&gt;&lt;div&gt;&lt;font style=&quot;font-size: 18px;&quot;&gt;&lt;br&gt;&lt;/font&gt;&lt;/div&gt;&lt;div&gt;&lt;font style=&quot;font-size: 18px;&quot;&gt;&lt;br&gt;&lt;/font&gt;&lt;/div&gt;&lt;div&gt;&lt;font style=&quot;font-size: 18px;&quot;&gt;&lt;br&gt;&lt;/font&gt;&lt;/div&gt;&lt;div&gt;&lt;font style=&quot;font-size: 18px;&quot;&gt;&lt;br&gt;&lt;/font&gt;&lt;/div&gt;&lt;div&gt;&lt;font style=&quot;font-size: 18px;&quot;&gt;&lt;br&gt;&lt;/font&gt;&lt;/div&gt;&lt;div&gt;&lt;font style=&quot;font-size: 18px;&quot;&gt;&lt;br&gt;&lt;/font&gt;&lt;/div&gt;&lt;div&gt;&lt;font style=&quot;font-size: 18px;&quot;&gt;&lt;br&gt;&lt;/font&gt;&lt;/div&gt;&lt;div&gt;&lt;font style=&quot;font-size: 18px;&quot;&gt;&lt;br&gt;&lt;/font&gt;&lt;/div&gt;&lt;div&gt;&lt;font style=&quot;font-size: 18px;&quot;&gt;&lt;br&gt;&lt;/font&gt;&lt;/div&gt;" style="rounded=1;whiteSpace=wrap;html=1;dashed=1;dashPattern=8 8;" parent="1" vertex="1">
          <mxGeometry x="860" y="-510" width="460" height="310" as="geometry" />
        </mxCell>
        <mxCell id="l3nvB3DhA1se58afsrXY-282" value="&lt;div&gt;&lt;font style=&quot;font-size: 36px;&quot;&gt;Интеграционное тестирование&lt;/font&gt;&lt;/div&gt;&lt;div&gt;&lt;font style=&quot;font-size: 36px;&quot;&gt;&lt;br&gt;&lt;/font&gt;&lt;/div&gt;&lt;div&gt;&lt;font style=&quot;font-size: 36px;&quot;&gt;&lt;br&gt;&lt;/font&gt;&lt;/div&gt;&lt;div&gt;&lt;font style=&quot;font-size: 36px;&quot;&gt;&lt;br&gt;&lt;/font&gt;&lt;/div&gt;&lt;div&gt;&lt;font style=&quot;font-size: 36px;&quot;&gt;&lt;br&gt;&lt;/font&gt;&lt;/div&gt;&lt;div&gt;&lt;font style=&quot;font-size: 36px;&quot;&gt;&lt;br&gt;&lt;/font&gt;&lt;/div&gt;&lt;div&gt;&lt;font style=&quot;font-size: 36px;&quot;&gt;&lt;br&gt;&lt;/font&gt;&lt;/div&gt;&lt;div&gt;&lt;font style=&quot;font-size: 36px;&quot;&gt;&lt;br&gt;&lt;/font&gt;&lt;/div&gt;&lt;div&gt;&lt;font style=&quot;font-size: 36px;&quot;&gt;&lt;br&gt;&lt;/font&gt;&lt;/div&gt;&lt;div&gt;&lt;font style=&quot;font-size: 36px;&quot;&gt;&lt;br&gt;&lt;/font&gt;&lt;/div&gt;&lt;div&gt;&lt;font style=&quot;font-size: 36px;&quot;&gt;&lt;br&gt;&lt;/font&gt;&lt;/div&gt;&lt;div&gt;&lt;font style=&quot;font-size: 36px;&quot;&gt;&lt;br&gt;&lt;/font&gt;&lt;/div&gt;&lt;div&gt;&lt;font style=&quot;font-size: 36px;&quot;&gt;&lt;br&gt;&lt;/font&gt;&lt;/div&gt;&lt;div&gt;&lt;font style=&quot;font-size: 36px;&quot;&gt;&lt;br&gt;&lt;/font&gt;&lt;/div&gt;&lt;div&gt;&lt;font style=&quot;font-size: 36px;&quot;&gt;&lt;br&gt;&lt;/font&gt;&lt;/div&gt;&lt;div&gt;&lt;font style=&quot;font-size: 36px;&quot;&gt;&lt;br&gt;&lt;/font&gt;&lt;/div&gt;&lt;div&gt;&lt;font style=&quot;font-size: 36px;&quot;&gt;&lt;br&gt;&lt;/font&gt;&lt;/div&gt;&lt;div&gt;&lt;font style=&quot;font-size: 36px;&quot;&gt;&lt;br&gt;&lt;/font&gt;&lt;/div&gt;&lt;div&gt;&lt;font style=&quot;font-size: 36px;&quot;&gt;&lt;br&gt;&lt;/font&gt;&lt;/div&gt;&lt;div&gt;&lt;font style=&quot;font-size: 36px;&quot;&gt;&lt;br&gt;&lt;/font&gt;&lt;/div&gt;&lt;div&gt;&lt;font style=&quot;font-size: 36px;&quot;&gt;&lt;br&gt;&lt;/font&gt;&lt;/div&gt;&lt;div&gt;&lt;font style=&quot;font-size: 36px;&quot;&gt;&lt;br&gt;&lt;/font&gt;&lt;/div&gt;&lt;div&gt;&lt;font style=&quot;font-size: 36px;&quot;&gt;&lt;br&gt;&lt;/font&gt;&lt;/div&gt;&lt;div&gt;&lt;font style=&quot;font-size: 36px;&quot;&gt;&lt;br&gt;&lt;/font&gt;&lt;/div&gt;&lt;div&gt;&lt;font style=&quot;font-size: 36px;&quot;&gt;&lt;br&gt;&lt;/font&gt;&lt;/div&gt;&lt;div&gt;&lt;font style=&quot;font-size: 36px;&quot;&gt;&lt;br&gt;&lt;/font&gt;&lt;/div&gt;&lt;div&gt;&lt;font style=&quot;font-size: 36px;&quot;&gt;&lt;br&gt;&lt;/font&gt;&lt;/div&gt;&lt;div&gt;&lt;font style=&quot;font-size: 36px;&quot;&gt;&lt;br&gt;&lt;/font&gt;&lt;/div&gt;&lt;div&gt;&lt;font style=&quot;font-size: 36px;&quot;&gt;&lt;br&gt;&lt;/font&gt;&lt;/div&gt;&lt;div&gt;&lt;font style=&quot;font-size: 36px;&quot;&gt;&lt;br&gt;&lt;/font&gt;&lt;/div&gt;&lt;div&gt;&lt;font style=&quot;font-size: 36px;&quot;&gt;&lt;br&gt;&lt;/font&gt;&lt;/div&gt;&lt;div&gt;&lt;font style=&quot;font-size: 36px;&quot;&gt;&lt;br&gt;&lt;/font&gt;&lt;/div&gt;&lt;div&gt;&lt;font style=&quot;font-size: 36px;&quot;&gt;&lt;br&gt;&lt;/font&gt;&lt;/div&gt;&lt;div&gt;&lt;font style=&quot;font-size: 36px;&quot;&gt;&lt;br&gt;&lt;/font&gt;&lt;/div&gt;&lt;div&gt;&lt;font style=&quot;font-size: 36px;&quot;&gt;&lt;br&gt;&lt;/font&gt;&lt;/div&gt;&lt;div&gt;&lt;font style=&quot;font-size: 36px;&quot;&gt;&lt;br&gt;&lt;/font&gt;&lt;/div&gt;&lt;div&gt;&lt;font style=&quot;font-size: 36px;&quot;&gt;&lt;br&gt;&lt;/font&gt;&lt;/div&gt;&lt;div&gt;&lt;font style=&quot;font-size: 36px;&quot;&gt;&lt;br&gt;&lt;/font&gt;&lt;/div&gt;&lt;div&gt;&lt;font style=&quot;font-size: 36px;&quot;&gt;&lt;br&gt;&lt;/font&gt;&lt;/div&gt;&lt;div&gt;&lt;font style=&quot;font-size: 36px;&quot;&gt;&lt;br&gt;&lt;/font&gt;&lt;/div&gt;&lt;div&gt;&lt;font style=&quot;font-size: 36px;&quot;&gt;&lt;br&gt;&lt;/font&gt;&lt;/div&gt;&lt;div&gt;&lt;font style=&quot;font-size: 36px;&quot;&gt;&lt;br&gt;&lt;/font&gt;&lt;/div&gt;&lt;div&gt;&lt;font style=&quot;font-size: 36px;&quot;&gt;&lt;br&gt;&lt;/font&gt;&lt;/div&gt;" style="rounded=1;whiteSpace=wrap;html=1;fillColor=#f5f5f5;fontColor=#333333;strokeColor=#666666;" parent="1" vertex="1">
          <mxGeometry x="-250" y="-360" width="1070" height="1910" as="geometry" />
        </mxCell>
        <mxCell id="l3nvB3DhA1se58afsrXY-219" value="&lt;div&gt;&lt;font style=&quot;font-size: 24px;&quot;&gt;Группа 2&lt;br&gt;&lt;/font&gt;&lt;/div&gt;&lt;div&gt;&lt;font size=&quot;3&quot;&gt;&lt;br&gt;&lt;/font&gt;&lt;/div&gt;&lt;div&gt;&lt;font size=&quot;3&quot;&gt;&lt;br&gt;&lt;/font&gt;&lt;/div&gt;&lt;div&gt;&lt;font size=&quot;3&quot;&gt;&lt;br&gt;&lt;/font&gt;&lt;/div&gt;&lt;div&gt;&lt;font size=&quot;3&quot;&gt;&lt;br&gt;&lt;/font&gt;&lt;/div&gt;&lt;div&gt;&lt;font size=&quot;3&quot;&gt;&lt;br&gt;&lt;/font&gt;&lt;/div&gt;&lt;div&gt;&lt;font size=&quot;3&quot;&gt;&lt;br&gt;&lt;/font&gt;&lt;/div&gt;&lt;div&gt;&lt;font size=&quot;3&quot;&gt;&lt;br&gt;&lt;/font&gt;&lt;/div&gt;&lt;div&gt;&lt;font size=&quot;3&quot;&gt;&lt;br&gt;&lt;/font&gt;&lt;/div&gt;&lt;div&gt;&lt;font size=&quot;3&quot;&gt;&lt;br&gt;&lt;/font&gt;&lt;/div&gt;&lt;div&gt;&lt;font size=&quot;3&quot;&gt;&lt;br&gt;&lt;/font&gt;&lt;/div&gt;&lt;div&gt;&lt;font size=&quot;3&quot;&gt;&lt;br&gt;&lt;/font&gt;&lt;/div&gt;&lt;div&gt;&lt;font size=&quot;3&quot;&gt;&lt;br&gt;&lt;/font&gt;&lt;/div&gt;&lt;div&gt;&lt;font size=&quot;3&quot;&gt;&lt;br&gt;&lt;/font&gt;&lt;/div&gt;&lt;div&gt;&lt;font size=&quot;3&quot;&gt;&lt;br&gt;&lt;/font&gt;&lt;/div&gt;&lt;div&gt;&lt;font size=&quot;3&quot;&gt;&lt;br&gt;&lt;/font&gt;&lt;/div&gt;" style="rounded=1;whiteSpace=wrap;html=1;fillColor=#dae8fc;strokeColor=#6c8ebf;" parent="1" vertex="1">
          <mxGeometry x="250" y="10" width="550" height="340" as="geometry" />
        </mxCell>
        <mxCell id="l3nvB3DhA1se58afsrXY-285" style="edgeStyle=orthogonalEdgeStyle;rounded=0;orthogonalLoop=1;jettySize=auto;html=1;exitX=0.5;exitY=1;exitDx=0;exitDy=0;entryX=0.5;entryY=0;entryDx=0;entryDy=0;strokeWidth=2;" parent="1" source="l3nvB3DhA1se58afsrXY-218" target="l3nvB3DhA1se58afsrXY-282" edge="1">
          <mxGeometry relative="1" as="geometry" />
        </mxCell>
        <mxCell id="l3nvB3DhA1se58afsrXY-218" value="&lt;div&gt;&lt;font style=&quot;font-size: 36px;&quot;&gt;Модульное тестирование&lt;/font&gt;&lt;/div&gt;" style="rounded=1;whiteSpace=wrap;html=1;fillColor=#f5f5f5;fontColor=#333333;strokeColor=#666666;" parent="1" vertex="1">
          <mxGeometry x="-30" y="-510" width="630" height="100" as="geometry" />
        </mxCell>
        <mxCell id="l3nvB3DhA1se58afsrXY-226" style="edgeStyle=orthogonalEdgeStyle;rounded=0;orthogonalLoop=1;jettySize=auto;html=1;exitX=0.5;exitY=1;exitDx=0;exitDy=0;entryX=0.5;entryY=0;entryDx=0;entryDy=0;strokeColor=#4912FF;strokeWidth=2;" parent="1" source="l3nvB3DhA1se58afsrXY-220" target="l3nvB3DhA1se58afsrXY-221" edge="1">
          <mxGeometry relative="1" as="geometry" />
        </mxCell>
        <mxCell id="l3nvB3DhA1se58afsrXY-220" value="&lt;font style=&quot;font-size: 14px;&quot;&gt;autoreport.py&lt;/font&gt;" style="rounded=0;whiteSpace=wrap;html=1;" parent="1" vertex="1">
          <mxGeometry x="465" y="70" width="120" height="60" as="geometry" />
        </mxCell>
        <mxCell id="l3nvB3DhA1se58afsrXY-227" style="edgeStyle=orthogonalEdgeStyle;rounded=0;orthogonalLoop=1;jettySize=auto;html=1;exitX=1;exitY=0.25;exitDx=0;exitDy=0;entryX=0.25;entryY=0;entryDx=0;entryDy=0;dashed=1;" parent="1" source="l3nvB3DhA1se58afsrXY-221" target="l3nvB3DhA1se58afsrXY-225" edge="1">
          <mxGeometry relative="1" as="geometry" />
        </mxCell>
        <mxCell id="l3nvB3DhA1se58afsrXY-229" style="edgeStyle=orthogonalEdgeStyle;rounded=0;orthogonalLoop=1;jettySize=auto;html=1;exitX=0.25;exitY=1;exitDx=0;exitDy=0;entryX=0.5;entryY=0;entryDx=0;entryDy=0;dashed=1;" parent="1" source="l3nvB3DhA1se58afsrXY-221" target="l3nvB3DhA1se58afsrXY-223" edge="1">
          <mxGeometry relative="1" as="geometry" />
        </mxCell>
        <mxCell id="l3nvB3DhA1se58afsrXY-230" style="edgeStyle=orthogonalEdgeStyle;rounded=0;orthogonalLoop=1;jettySize=auto;html=1;exitX=0;exitY=0.25;exitDx=0;exitDy=0;entryX=0.5;entryY=0;entryDx=0;entryDy=0;dashed=1;" parent="1" source="l3nvB3DhA1se58afsrXY-221" target="l3nvB3DhA1se58afsrXY-222" edge="1">
          <mxGeometry relative="1" as="geometry" />
        </mxCell>
        <mxCell id="l3nvB3DhA1se58afsrXY-221" value="&lt;font style=&quot;font-size: 14px;&quot;&gt;funcs.py&lt;/font&gt;" style="rounded=0;whiteSpace=wrap;html=1;" parent="1" vertex="1">
          <mxGeometry x="465" y="160" width="120" height="60" as="geometry" />
        </mxCell>
        <mxCell id="l3nvB3DhA1se58afsrXY-222" value="&lt;font style=&quot;font-size: 14px;&quot;&gt;report_generator.py&lt;/font&gt;" style="rounded=0;whiteSpace=wrap;html=1;fillColor=#d5e8d4;strokeColor=#82b366;" parent="1" vertex="1">
          <mxGeometry x="260" y="200" width="140" height="60" as="geometry" />
        </mxCell>
        <mxCell id="l3nvB3DhA1se58afsrXY-223" value="&lt;font style=&quot;font-size: 14px;&quot;&gt;cirriculum_getter.py&lt;/font&gt;" style="rounded=0;whiteSpace=wrap;html=1;fillColor=#d5e8d4;strokeColor=#82b366;" parent="1" vertex="1">
          <mxGeometry x="370" y="270" width="140" height="60" as="geometry" />
        </mxCell>
        <mxCell id="l3nvB3DhA1se58afsrXY-224" value="&lt;font style=&quot;font-size: 14px;&quot;&gt;cirriculum_importer.py&lt;/font&gt;" style="rounded=0;whiteSpace=wrap;html=1;fillColor=#d5e8d4;strokeColor=#82b366;" parent="1" vertex="1">
          <mxGeometry x="530" y="270" width="160" height="60" as="geometry" />
        </mxCell>
        <mxCell id="l3nvB3DhA1se58afsrXY-225" value="&lt;font style=&quot;font-size: 14px;&quot;&gt;report_state.py&lt;/font&gt;" style="rounded=0;whiteSpace=wrap;html=1;fillColor=#d5e8d4;strokeColor=#82b366;" parent="1" vertex="1">
          <mxGeometry x="660" y="200" width="120" height="60" as="geometry" />
        </mxCell>
        <mxCell id="l3nvB3DhA1se58afsrXY-284" style="rounded=0;orthogonalLoop=1;jettySize=auto;html=1;exitX=0.5;exitY=1;exitDx=0;exitDy=0;entryX=0.25;entryY=0;entryDx=0;entryDy=0;strokeWidth=2;" parent="1" source="l3nvB3DhA1se58afsrXY-231" target="l3nvB3DhA1se58afsrXY-243" edge="1">
          <mxGeometry relative="1" as="geometry" />
        </mxCell>
        <mxCell id="l3nvB3DhA1se58afsrXY-231" value="&lt;div&gt;&lt;font style=&quot;font-size: 24px;&quot;&gt;Группа 1&lt;/font&gt;&lt;/div&gt;&lt;br&gt;&lt;div&gt;&lt;br&gt;&lt;/div&gt;&lt;div&gt;&lt;br&gt;&lt;/div&gt;&lt;div&gt;&lt;br&gt;&lt;/div&gt;&lt;div&gt;&lt;br&gt;&lt;/div&gt;&lt;div&gt;&lt;br&gt;&lt;/div&gt;&lt;div&gt;&lt;br&gt;&lt;/div&gt;&lt;div&gt;&lt;br&gt;&lt;/div&gt;&lt;div&gt;&lt;br&gt;&lt;/div&gt;&lt;div&gt;&lt;br&gt;&lt;/div&gt;&lt;div&gt;&lt;br&gt;&lt;/div&gt;&lt;div&gt;&lt;br&gt;&lt;/div&gt;" style="rounded=1;whiteSpace=wrap;html=1;fillColor=#dae8fc;strokeColor=#6c8ebf;" parent="1" vertex="1">
          <mxGeometry x="-160" y="75" width="270" height="230" as="geometry" />
        </mxCell>
        <mxCell id="l3nvB3DhA1se58afsrXY-235" style="edgeStyle=orthogonalEdgeStyle;rounded=0;orthogonalLoop=1;jettySize=auto;html=1;exitX=0.5;exitY=1;exitDx=0;exitDy=0;entryX=0.5;entryY=0;entryDx=0;entryDy=0;strokeColor=#4912FF;strokeWidth=2;" parent="1" source="l3nvB3DhA1se58afsrXY-238" target="l3nvB3DhA1se58afsrXY-241" edge="1">
          <mxGeometry relative="1" as="geometry" />
        </mxCell>
        <mxCell id="l3nvB3DhA1se58afsrXY-238" value="&lt;font style=&quot;font-size: 14px;&quot;&gt;funcs.py&lt;/font&gt;" style="rounded=0;whiteSpace=wrap;html=1;" parent="1" vertex="1">
          <mxGeometry x="-85" y="135" width="120" height="60" as="geometry" />
        </mxCell>
        <mxCell id="l3nvB3DhA1se58afsrXY-241" value="&lt;font style=&quot;font-size: 14px;&quot;&gt;cirriculum_importer.py&lt;/font&gt;" style="rounded=0;whiteSpace=wrap;html=1;" parent="1" vertex="1">
          <mxGeometry x="-100" y="235" width="150" height="60" as="geometry" />
        </mxCell>
        <mxCell id="l3nvB3DhA1se58afsrXY-243" value="&lt;div&gt;&lt;font style=&quot;font-size: 24px;&quot;&gt;Группа 3&lt;br&gt;&lt;/font&gt;&lt;/div&gt;&lt;div&gt;&lt;font size=&quot;3&quot;&gt;&lt;br&gt;&lt;/font&gt;&lt;/div&gt;&lt;div&gt;&lt;font size=&quot;3&quot;&gt;&lt;br&gt;&lt;/font&gt;&lt;/div&gt;&lt;div&gt;&lt;font size=&quot;3&quot;&gt;&lt;br&gt;&lt;/font&gt;&lt;/div&gt;&lt;div&gt;&lt;font size=&quot;3&quot;&gt;&lt;br&gt;&lt;/font&gt;&lt;/div&gt;&lt;div&gt;&lt;font size=&quot;3&quot;&gt;&lt;br&gt;&lt;/font&gt;&lt;/div&gt;&lt;div&gt;&lt;font size=&quot;3&quot;&gt;&lt;br&gt;&lt;/font&gt;&lt;/div&gt;&lt;div&gt;&lt;font size=&quot;3&quot;&gt;&lt;br&gt;&lt;/font&gt;&lt;/div&gt;&lt;div&gt;&lt;font size=&quot;3&quot;&gt;&lt;br&gt;&lt;/font&gt;&lt;/div&gt;&lt;div&gt;&lt;font size=&quot;3&quot;&gt;&lt;br&gt;&lt;/font&gt;&lt;/div&gt;&lt;div&gt;&lt;font size=&quot;3&quot;&gt;&lt;br&gt;&lt;/font&gt;&lt;/div&gt;&lt;div&gt;&lt;font size=&quot;3&quot;&gt;&lt;br&gt;&lt;/font&gt;&lt;/div&gt;&lt;div&gt;&lt;font size=&quot;3&quot;&gt;&lt;br&gt;&lt;/font&gt;&lt;/div&gt;&lt;div&gt;&lt;font size=&quot;3&quot;&gt;&lt;br&gt;&lt;/font&gt;&lt;/div&gt;&lt;div&gt;&lt;font size=&quot;3&quot;&gt;&lt;br&gt;&lt;/font&gt;&lt;/div&gt;&lt;div&gt;&lt;font size=&quot;3&quot;&gt;&lt;br&gt;&lt;/font&gt;&lt;/div&gt;" style="rounded=1;whiteSpace=wrap;html=1;fillColor=#dae8fc;strokeColor=#6c8ebf;" parent="1" vertex="1">
          <mxGeometry x="10" y="400" width="550" height="340" as="geometry" />
        </mxCell>
        <mxCell id="l3nvB3DhA1se58afsrXY-244" style="edgeStyle=orthogonalEdgeStyle;rounded=0;orthogonalLoop=1;jettySize=auto;html=1;exitX=0.5;exitY=1;exitDx=0;exitDy=0;entryX=0.5;entryY=0;entryDx=0;entryDy=0;strokeColor=#31FF08;strokeWidth=2;" parent="1" source="l3nvB3DhA1se58afsrXY-245" target="l3nvB3DhA1se58afsrXY-250" edge="1">
          <mxGeometry relative="1" as="geometry" />
        </mxCell>
        <mxCell id="l3nvB3DhA1se58afsrXY-245" value="&lt;font style=&quot;font-size: 14px;&quot;&gt;autoreport.py&lt;/font&gt;" style="rounded=0;whiteSpace=wrap;html=1;" parent="1" vertex="1">
          <mxGeometry x="225" y="460" width="120" height="60" as="geometry" />
        </mxCell>
        <mxCell id="l3nvB3DhA1se58afsrXY-246" style="edgeStyle=orthogonalEdgeStyle;rounded=0;orthogonalLoop=1;jettySize=auto;html=1;exitX=1;exitY=0.25;exitDx=0;exitDy=0;entryX=0.25;entryY=0;entryDx=0;entryDy=0;strokeColor=#4912FF;strokeWidth=2;" parent="1" source="l3nvB3DhA1se58afsrXY-250" target="l3nvB3DhA1se58afsrXY-254" edge="1">
          <mxGeometry relative="1" as="geometry" />
        </mxCell>
        <mxCell id="l3nvB3DhA1se58afsrXY-247" style="edgeStyle=orthogonalEdgeStyle;rounded=0;orthogonalLoop=1;jettySize=auto;html=1;exitX=0.75;exitY=1;exitDx=0;exitDy=0;entryX=0.5;entryY=0;entryDx=0;entryDy=0;strokeColor=#31FF08;strokeWidth=2;" parent="1" source="l3nvB3DhA1se58afsrXY-250" target="l3nvB3DhA1se58afsrXY-253" edge="1">
          <mxGeometry relative="1" as="geometry" />
        </mxCell>
        <mxCell id="l3nvB3DhA1se58afsrXY-248" style="edgeStyle=orthogonalEdgeStyle;rounded=0;orthogonalLoop=1;jettySize=auto;html=1;exitX=0.25;exitY=1;exitDx=0;exitDy=0;entryX=0.5;entryY=0;entryDx=0;entryDy=0;dashed=1;" parent="1" source="l3nvB3DhA1se58afsrXY-250" target="l3nvB3DhA1se58afsrXY-252" edge="1">
          <mxGeometry relative="1" as="geometry" />
        </mxCell>
        <mxCell id="l3nvB3DhA1se58afsrXY-249" style="edgeStyle=orthogonalEdgeStyle;rounded=0;orthogonalLoop=1;jettySize=auto;html=1;exitX=0;exitY=0.25;exitDx=0;exitDy=0;entryX=0.5;entryY=0;entryDx=0;entryDy=0;dashed=1;" parent="1" source="l3nvB3DhA1se58afsrXY-250" target="l3nvB3DhA1se58afsrXY-251" edge="1">
          <mxGeometry relative="1" as="geometry" />
        </mxCell>
        <mxCell id="l3nvB3DhA1se58afsrXY-250" value="&lt;font style=&quot;font-size: 14px;&quot;&gt;funcs.py&lt;/font&gt;" style="rounded=0;whiteSpace=wrap;html=1;" parent="1" vertex="1">
          <mxGeometry x="225" y="550" width="120" height="60" as="geometry" />
        </mxCell>
        <mxCell id="l3nvB3DhA1se58afsrXY-251" value="&lt;font style=&quot;font-size: 14px;&quot;&gt;report_generator.py&lt;/font&gt;" style="rounded=0;whiteSpace=wrap;html=1;fillColor=#d5e8d4;strokeColor=#82b366;" parent="1" vertex="1">
          <mxGeometry x="20" y="590" width="140" height="60" as="geometry" />
        </mxCell>
        <mxCell id="l3nvB3DhA1se58afsrXY-252" value="&lt;font style=&quot;font-size: 14px;&quot;&gt;cirriculum_getter.py&lt;/font&gt;" style="rounded=0;whiteSpace=wrap;html=1;fillColor=#d5e8d4;strokeColor=#82b366;" parent="1" vertex="1">
          <mxGeometry x="130" y="660" width="140" height="60" as="geometry" />
        </mxCell>
        <mxCell id="l3nvB3DhA1se58afsrXY-253" value="&lt;font style=&quot;font-size: 14px;&quot;&gt;cirriculum_importer.py&lt;/font&gt;" style="rounded=0;whiteSpace=wrap;html=1;" parent="1" vertex="1">
          <mxGeometry x="290" y="660" width="160" height="60" as="geometry" />
        </mxCell>
        <mxCell id="l3nvB3DhA1se58afsrXY-254" value="&lt;font style=&quot;font-size: 14px;&quot;&gt;report_state.py&lt;/font&gt;" style="rounded=0;whiteSpace=wrap;html=1;" parent="1" vertex="1">
          <mxGeometry x="420" y="590" width="120" height="60" as="geometry" />
        </mxCell>
        <mxCell id="l3nvB3DhA1se58afsrXY-255" value="&lt;div&gt;&lt;font style=&quot;font-size: 24px;&quot;&gt;Группа 4&lt;br&gt;&lt;/font&gt;&lt;/div&gt;&lt;div&gt;&lt;font size=&quot;3&quot;&gt;&lt;br&gt;&lt;/font&gt;&lt;/div&gt;&lt;div&gt;&lt;font size=&quot;3&quot;&gt;&lt;br&gt;&lt;/font&gt;&lt;/div&gt;&lt;div&gt;&lt;font size=&quot;3&quot;&gt;&lt;br&gt;&lt;/font&gt;&lt;/div&gt;&lt;div&gt;&lt;font size=&quot;3&quot;&gt;&lt;br&gt;&lt;/font&gt;&lt;/div&gt;&lt;div&gt;&lt;font size=&quot;3&quot;&gt;&lt;br&gt;&lt;/font&gt;&lt;/div&gt;&lt;div&gt;&lt;font size=&quot;3&quot;&gt;&lt;br&gt;&lt;/font&gt;&lt;/div&gt;&lt;div&gt;&lt;font size=&quot;3&quot;&gt;&lt;br&gt;&lt;/font&gt;&lt;/div&gt;&lt;div&gt;&lt;font size=&quot;3&quot;&gt;&lt;br&gt;&lt;/font&gt;&lt;/div&gt;&lt;div&gt;&lt;font size=&quot;3&quot;&gt;&lt;br&gt;&lt;/font&gt;&lt;/div&gt;&lt;div&gt;&lt;font size=&quot;3&quot;&gt;&lt;br&gt;&lt;/font&gt;&lt;/div&gt;&lt;div&gt;&lt;font size=&quot;3&quot;&gt;&lt;br&gt;&lt;/font&gt;&lt;/div&gt;&lt;div&gt;&lt;font size=&quot;3&quot;&gt;&lt;br&gt;&lt;/font&gt;&lt;/div&gt;&lt;div&gt;&lt;font size=&quot;3&quot;&gt;&lt;br&gt;&lt;/font&gt;&lt;/div&gt;&lt;div&gt;&lt;font size=&quot;3&quot;&gt;&lt;br&gt;&lt;/font&gt;&lt;/div&gt;&lt;div&gt;&lt;font size=&quot;3&quot;&gt;&lt;br&gt;&lt;/font&gt;&lt;/div&gt;" style="rounded=1;whiteSpace=wrap;html=1;fillColor=#dae8fc;strokeColor=#6c8ebf;" parent="1" vertex="1">
          <mxGeometry x="10" y="800" width="550" height="340" as="geometry" />
        </mxCell>
        <mxCell id="l3nvB3DhA1se58afsrXY-256" style="edgeStyle=orthogonalEdgeStyle;rounded=0;orthogonalLoop=1;jettySize=auto;html=1;exitX=0.5;exitY=1;exitDx=0;exitDy=0;entryX=0.5;entryY=0;entryDx=0;entryDy=0;strokeColor=#31FF08;strokeWidth=2;" parent="1" source="l3nvB3DhA1se58afsrXY-257" target="l3nvB3DhA1se58afsrXY-262" edge="1">
          <mxGeometry relative="1" as="geometry" />
        </mxCell>
        <mxCell id="l3nvB3DhA1se58afsrXY-257" value="&lt;font style=&quot;font-size: 14px;&quot;&gt;autoreport.py&lt;/font&gt;" style="rounded=0;whiteSpace=wrap;html=1;" parent="1" vertex="1">
          <mxGeometry x="225" y="860" width="120" height="60" as="geometry" />
        </mxCell>
        <mxCell id="l3nvB3DhA1se58afsrXY-259" style="edgeStyle=orthogonalEdgeStyle;rounded=0;orthogonalLoop=1;jettySize=auto;html=1;exitX=0.75;exitY=1;exitDx=0;exitDy=0;entryX=0.5;entryY=0;entryDx=0;entryDy=0;strokeColor=#31FF08;strokeWidth=2;" parent="1" source="l3nvB3DhA1se58afsrXY-262" target="l3nvB3DhA1se58afsrXY-265" edge="1">
          <mxGeometry relative="1" as="geometry" />
        </mxCell>
        <mxCell id="l3nvB3DhA1se58afsrXY-260" style="edgeStyle=orthogonalEdgeStyle;rounded=0;orthogonalLoop=1;jettySize=auto;html=1;exitX=0.25;exitY=1;exitDx=0;exitDy=0;entryX=0.5;entryY=0;entryDx=0;entryDy=0;dashed=1;" parent="1" source="l3nvB3DhA1se58afsrXY-262" target="l3nvB3DhA1se58afsrXY-264" edge="1">
          <mxGeometry relative="1" as="geometry" />
        </mxCell>
        <mxCell id="l3nvB3DhA1se58afsrXY-262" value="&lt;font style=&quot;font-size: 14px;&quot;&gt;funcs.py&lt;/font&gt;" style="rounded=0;whiteSpace=wrap;html=1;" parent="1" vertex="1">
          <mxGeometry x="225" y="950" width="120" height="60" as="geometry" />
        </mxCell>
        <mxCell id="l3nvB3DhA1se58afsrXY-263" value="&lt;font style=&quot;font-size: 14px;&quot;&gt;report_generator.py&lt;/font&gt;" style="rounded=0;whiteSpace=wrap;html=1;" parent="1" vertex="1">
          <mxGeometry x="20" y="990" width="140" height="60" as="geometry" />
        </mxCell>
        <mxCell id="l3nvB3DhA1se58afsrXY-264" value="&lt;font style=&quot;font-size: 14px;&quot;&gt;cirriculum_getter.py&lt;/font&gt;" style="rounded=0;whiteSpace=wrap;html=1;fillColor=#d5e8d4;strokeColor=#82b366;" parent="1" vertex="1">
          <mxGeometry x="130" y="1060" width="140" height="60" as="geometry" />
        </mxCell>
        <mxCell id="l3nvB3DhA1se58afsrXY-265" value="&lt;font style=&quot;font-size: 14px;&quot;&gt;cirriculum_importer.py&lt;/font&gt;" style="rounded=0;whiteSpace=wrap;html=1;" parent="1" vertex="1">
          <mxGeometry x="290" y="1060" width="160" height="60" as="geometry" />
        </mxCell>
        <mxCell id="l3nvB3DhA1se58afsrXY-266" value="&lt;font style=&quot;font-size: 14px;&quot;&gt;report_state.py&lt;/font&gt;" style="rounded=0;whiteSpace=wrap;html=1;" parent="1" vertex="1">
          <mxGeometry x="420" y="990" width="120" height="60" as="geometry" />
        </mxCell>
        <mxCell id="l3nvB3DhA1se58afsrXY-267" style="edgeStyle=orthogonalEdgeStyle;rounded=0;orthogonalLoop=1;jettySize=auto;html=1;exitX=0;exitY=0.25;exitDx=0;exitDy=0;entryX=0.75;entryY=0;entryDx=0;entryDy=0;strokeColor=#4912FF;strokeWidth=2;" parent="1" source="l3nvB3DhA1se58afsrXY-262" target="l3nvB3DhA1se58afsrXY-263" edge="1">
          <mxGeometry relative="1" as="geometry">
            <mxPoint x="355" y="1005" as="sourcePoint" />
            <mxPoint x="460" y="1040" as="targetPoint" />
          </mxGeometry>
        </mxCell>
        <mxCell id="l3nvB3DhA1se58afsrXY-268" style="edgeStyle=orthogonalEdgeStyle;rounded=0;orthogonalLoop=1;jettySize=auto;html=1;exitX=1;exitY=0.25;exitDx=0;exitDy=0;entryX=0.25;entryY=0;entryDx=0;entryDy=0;strokeColor=#31FF08;strokeWidth=2;" parent="1" source="l3nvB3DhA1se58afsrXY-262" target="l3nvB3DhA1se58afsrXY-266" edge="1">
          <mxGeometry relative="1" as="geometry">
            <mxPoint x="325" y="1020" as="sourcePoint" />
            <mxPoint x="360" y="1070" as="targetPoint" />
          </mxGeometry>
        </mxCell>
        <mxCell id="l3nvB3DhA1se58afsrXY-269" value="&lt;div&gt;&lt;font style=&quot;font-size: 24px;&quot;&gt;Группа 5&lt;/font&gt;&lt;/div&gt;&lt;div&gt;&lt;font size=&quot;3&quot;&gt;&lt;br&gt;&lt;/font&gt;&lt;/div&gt;&lt;div&gt;&lt;font size=&quot;3&quot;&gt;&lt;br&gt;&lt;/font&gt;&lt;/div&gt;&lt;div&gt;&lt;font size=&quot;3&quot;&gt;&lt;br&gt;&lt;/font&gt;&lt;/div&gt;&lt;div&gt;&lt;font size=&quot;3&quot;&gt;&lt;br&gt;&lt;/font&gt;&lt;/div&gt;&lt;div&gt;&lt;font size=&quot;3&quot;&gt;&lt;br&gt;&lt;/font&gt;&lt;/div&gt;&lt;div&gt;&lt;font size=&quot;3&quot;&gt;&lt;br&gt;&lt;/font&gt;&lt;/div&gt;&lt;div&gt;&lt;font size=&quot;3&quot;&gt;&lt;br&gt;&lt;/font&gt;&lt;/div&gt;&lt;div&gt;&lt;font size=&quot;3&quot;&gt;&lt;br&gt;&lt;/font&gt;&lt;/div&gt;&lt;div&gt;&lt;font size=&quot;3&quot;&gt;&lt;br&gt;&lt;/font&gt;&lt;/div&gt;&lt;div&gt;&lt;font size=&quot;3&quot;&gt;&lt;br&gt;&lt;/font&gt;&lt;/div&gt;&lt;div&gt;&lt;font size=&quot;3&quot;&gt;&lt;br&gt;&lt;/font&gt;&lt;/div&gt;&lt;div&gt;&lt;font size=&quot;3&quot;&gt;&lt;br&gt;&lt;/font&gt;&lt;/div&gt;&lt;div&gt;&lt;font size=&quot;3&quot;&gt;&lt;br&gt;&lt;/font&gt;&lt;/div&gt;&lt;div&gt;&lt;font size=&quot;3&quot;&gt;&lt;br&gt;&lt;/font&gt;&lt;/div&gt;&lt;div&gt;&lt;font size=&quot;3&quot;&gt;&lt;br&gt;&lt;/font&gt;&lt;/div&gt;" style="rounded=1;whiteSpace=wrap;html=1;fillColor=#dae8fc;strokeColor=#6c8ebf;" parent="1" vertex="1">
          <mxGeometry x="10" y="1190" width="550" height="340" as="geometry" />
        </mxCell>
        <mxCell id="l3nvB3DhA1se58afsrXY-270" style="edgeStyle=orthogonalEdgeStyle;rounded=0;orthogonalLoop=1;jettySize=auto;html=1;exitX=0.5;exitY=1;exitDx=0;exitDy=0;entryX=0.5;entryY=0;entryDx=0;entryDy=0;strokeColor=#31FF08;strokeWidth=2;" parent="1" source="l3nvB3DhA1se58afsrXY-271" target="l3nvB3DhA1se58afsrXY-274" edge="1">
          <mxGeometry relative="1" as="geometry" />
        </mxCell>
        <mxCell id="l3nvB3DhA1se58afsrXY-271" value="&lt;font style=&quot;font-size: 14px;&quot;&gt;autoreport.py&lt;/font&gt;" style="rounded=0;whiteSpace=wrap;html=1;" parent="1" vertex="1">
          <mxGeometry x="225" y="1250" width="120" height="60" as="geometry" />
        </mxCell>
        <mxCell id="l3nvB3DhA1se58afsrXY-272" style="edgeStyle=orthogonalEdgeStyle;rounded=0;orthogonalLoop=1;jettySize=auto;html=1;exitX=0.75;exitY=1;exitDx=0;exitDy=0;entryX=0.5;entryY=0;entryDx=0;entryDy=0;strokeColor=#31FF08;strokeWidth=2;" parent="1" source="l3nvB3DhA1se58afsrXY-274" target="l3nvB3DhA1se58afsrXY-277" edge="1">
          <mxGeometry relative="1" as="geometry" />
        </mxCell>
        <mxCell id="l3nvB3DhA1se58afsrXY-274" value="&lt;font style=&quot;font-size: 14px;&quot;&gt;funcs.py&lt;/font&gt;" style="rounded=0;whiteSpace=wrap;html=1;" parent="1" vertex="1">
          <mxGeometry x="225" y="1340" width="120" height="60" as="geometry" />
        </mxCell>
        <mxCell id="l3nvB3DhA1se58afsrXY-275" value="&lt;font style=&quot;font-size: 14px;&quot;&gt;report_generator.py&lt;/font&gt;" style="rounded=0;whiteSpace=wrap;html=1;" parent="1" vertex="1">
          <mxGeometry x="20" y="1380" width="140" height="60" as="geometry" />
        </mxCell>
        <mxCell id="l3nvB3DhA1se58afsrXY-276" value="&lt;font style=&quot;font-size: 14px;&quot;&gt;cirriculum_getter.py&lt;/font&gt;" style="rounded=0;whiteSpace=wrap;html=1;" parent="1" vertex="1">
          <mxGeometry x="130" y="1450" width="140" height="60" as="geometry" />
        </mxCell>
        <mxCell id="l3nvB3DhA1se58afsrXY-277" value="&lt;font style=&quot;font-size: 14px;&quot;&gt;cirriculum_importer.py&lt;/font&gt;" style="rounded=0;whiteSpace=wrap;html=1;" parent="1" vertex="1">
          <mxGeometry x="290" y="1450" width="160" height="60" as="geometry" />
        </mxCell>
        <mxCell id="l3nvB3DhA1se58afsrXY-278" value="&lt;font style=&quot;font-size: 14px;&quot;&gt;report_state.py&lt;/font&gt;" style="rounded=0;whiteSpace=wrap;html=1;" parent="1" vertex="1">
          <mxGeometry x="420" y="1380" width="120" height="60" as="geometry" />
        </mxCell>
        <mxCell id="l3nvB3DhA1se58afsrXY-279" style="edgeStyle=orthogonalEdgeStyle;rounded=0;orthogonalLoop=1;jettySize=auto;html=1;exitX=0.25;exitY=1;exitDx=0;exitDy=0;entryX=0.5;entryY=0;entryDx=0;entryDy=0;strokeColor=#4912FF;strokeWidth=2;" parent="1" source="l3nvB3DhA1se58afsrXY-274" target="l3nvB3DhA1se58afsrXY-276" edge="1">
          <mxGeometry relative="1" as="geometry">
            <mxPoint x="355" y="1395" as="sourcePoint" />
            <mxPoint x="460" y="1430" as="targetPoint" />
          </mxGeometry>
        </mxCell>
        <mxCell id="l3nvB3DhA1se58afsrXY-280" style="edgeStyle=orthogonalEdgeStyle;rounded=0;orthogonalLoop=1;jettySize=auto;html=1;exitX=1;exitY=0.25;exitDx=0;exitDy=0;entryX=0.25;entryY=0;entryDx=0;entryDy=0;strokeColor=#31FF08;strokeWidth=2;" parent="1" source="l3nvB3DhA1se58afsrXY-274" target="l3nvB3DhA1se58afsrXY-278" edge="1">
          <mxGeometry relative="1" as="geometry">
            <mxPoint x="325" y="1410" as="sourcePoint" />
            <mxPoint x="360" y="1460" as="targetPoint" />
          </mxGeometry>
        </mxCell>
        <mxCell id="l3nvB3DhA1se58afsrXY-281" style="edgeStyle=orthogonalEdgeStyle;rounded=0;orthogonalLoop=1;jettySize=auto;html=1;exitX=0;exitY=0.25;exitDx=0;exitDy=0;entryX=0.75;entryY=0;entryDx=0;entryDy=0;strokeColor=#31FF08;strokeWidth=2;" parent="1" source="l3nvB3DhA1se58afsrXY-274" target="l3nvB3DhA1se58afsrXY-275" edge="1">
          <mxGeometry relative="1" as="geometry">
            <mxPoint x="325" y="1410" as="sourcePoint" />
            <mxPoint x="360" y="1460" as="targetPoint" />
          </mxGeometry>
        </mxCell>
        <mxCell id="l3nvB3DhA1se58afsrXY-286" style="rounded=0;orthogonalLoop=1;jettySize=auto;html=1;exitX=0.5;exitY=1;exitDx=0;exitDy=0;entryX=0.75;entryY=0;entryDx=0;entryDy=0;strokeWidth=2;" parent="1" source="l3nvB3DhA1se58afsrXY-219" target="l3nvB3DhA1se58afsrXY-243" edge="1">
          <mxGeometry relative="1" as="geometry">
            <mxPoint x="535" y="-30" as="sourcePoint" />
            <mxPoint x="535" y="20" as="targetPoint" />
          </mxGeometry>
        </mxCell>
        <mxCell id="l3nvB3DhA1se58afsrXY-287" style="edgeStyle=orthogonalEdgeStyle;rounded=0;orthogonalLoop=1;jettySize=auto;html=1;exitX=0.5;exitY=1;exitDx=0;exitDy=0;entryX=0.5;entryY=0;entryDx=0;entryDy=0;strokeWidth=2;" parent="1" source="l3nvB3DhA1se58afsrXY-243" target="l3nvB3DhA1se58afsrXY-255" edge="1">
          <mxGeometry relative="1" as="geometry">
            <mxPoint x="535" y="360" as="sourcePoint" />
            <mxPoint x="535" y="410" as="targetPoint" />
          </mxGeometry>
        </mxCell>
        <mxCell id="l3nvB3DhA1se58afsrXY-288" style="edgeStyle=orthogonalEdgeStyle;rounded=0;orthogonalLoop=1;jettySize=auto;html=1;exitX=0.5;exitY=1;exitDx=0;exitDy=0;entryX=0.5;entryY=0;entryDx=0;entryDy=0;strokeWidth=2;" parent="1" source="l3nvB3DhA1se58afsrXY-255" target="l3nvB3DhA1se58afsrXY-269" edge="1">
          <mxGeometry relative="1" as="geometry">
            <mxPoint x="295" y="760" as="sourcePoint" />
            <mxPoint x="295" y="810" as="targetPoint" />
          </mxGeometry>
        </mxCell>
        <mxCell id="l3nvB3DhA1se58afsrXY-290" value="&lt;font style=&quot;font-size: 14px;&quot;&gt;Модуль&lt;/font&gt;" style="rounded=0;whiteSpace=wrap;html=1;" parent="1" vertex="1">
          <mxGeometry x="890" y="-470" width="120" height="60" as="geometry" />
        </mxCell>
        <mxCell id="l3nvB3DhA1se58afsrXY-296" value="&lt;font style=&quot;font-size: 14px;&quot;&gt;Модуль-заглушка&lt;br&gt;&lt;/font&gt;" style="rounded=0;whiteSpace=wrap;html=1;fillColor=#d5e8d4;strokeColor=#82b366;" parent="1" vertex="1">
          <mxGeometry x="1130" y="-470" width="120" height="60" as="geometry" />
        </mxCell>
        <mxCell id="l3nvB3DhA1se58afsrXY-297" style="edgeStyle=orthogonalEdgeStyle;rounded=0;orthogonalLoop=1;jettySize=auto;html=1;exitX=0.5;exitY=1;exitDx=0;exitDy=0;strokeWidth=2;" parent="1" edge="1">
          <mxGeometry relative="1" as="geometry">
            <mxPoint x="905" y="-360" as="sourcePoint" />
            <mxPoint x="995" y="-360" as="targetPoint" />
          </mxGeometry>
        </mxCell>
        <mxCell id="l3nvB3DhA1se58afsrXY-298" value="&lt;div&gt;&lt;font style=&quot;font-size: 14px;&quot;&gt;Последовательность&lt;/font&gt;&lt;/div&gt;&lt;div&gt;&lt;font style=&quot;font-size: 14px;&quot;&gt;тестирования&lt;br&gt;&lt;/font&gt;&lt;/div&gt;" style="text;html=1;strokeColor=none;fillColor=none;align=center;verticalAlign=middle;whiteSpace=wrap;rounded=0;" parent="1" vertex="1">
          <mxGeometry x="877.5" y="-340" width="145" height="40" as="geometry" />
        </mxCell>
        <mxCell id="l3nvB3DhA1se58afsrXY-300" style="edgeStyle=orthogonalEdgeStyle;rounded=0;orthogonalLoop=1;jettySize=auto;html=1;exitX=0.5;exitY=1;exitDx=0;exitDy=0;strokeWidth=2;strokeColor=#4912FF;" parent="1" edge="1">
          <mxGeometry relative="1" as="geometry">
            <mxPoint x="1145" y="-360" as="sourcePoint" />
            <mxPoint x="1235" y="-360" as="targetPoint" />
          </mxGeometry>
        </mxCell>
        <mxCell id="l3nvB3DhA1se58afsrXY-301" value="&lt;font style=&quot;font-size: 14px;&quot;&gt;Связь между модулями, проверяемая в данной группе&lt;/font&gt;" style="text;html=1;strokeColor=none;fillColor=none;align=center;verticalAlign=middle;whiteSpace=wrap;rounded=0;" parent="1" vertex="1">
          <mxGeometry x="1085" y="-350" width="210" height="60" as="geometry" />
        </mxCell>
        <mxCell id="l3nvB3DhA1se58afsrXY-302" style="edgeStyle=orthogonalEdgeStyle;rounded=0;orthogonalLoop=1;jettySize=auto;html=1;exitX=0.5;exitY=1;exitDx=0;exitDy=0;strokeWidth=1;dashed=1;" parent="1" edge="1">
          <mxGeometry relative="1" as="geometry">
            <mxPoint x="910" y="-270" as="sourcePoint" />
            <mxPoint x="1000" y="-270" as="targetPoint" />
          </mxGeometry>
        </mxCell>
        <mxCell id="l3nvB3DhA1se58afsrXY-303" value="&lt;font style=&quot;font-size: 14px;&quot;&gt;Взаимодействие с модулем-загрушкой&lt;/font&gt;" style="text;html=1;strokeColor=none;fillColor=none;align=center;verticalAlign=middle;whiteSpace=wrap;rounded=0;" parent="1" vertex="1">
          <mxGeometry x="870" y="-250" width="170" height="30" as="geometry" />
        </mxCell>
        <mxCell id="l3nvB3DhA1se58afsrXY-304" style="edgeStyle=orthogonalEdgeStyle;rounded=0;orthogonalLoop=1;jettySize=auto;html=1;exitX=0.5;exitY=1;exitDx=0;exitDy=0;strokeWidth=2;strokeColor=#31FF08;" parent="1" edge="1">
          <mxGeometry relative="1" as="geometry">
            <mxPoint x="1145" y="-270" as="sourcePoint" />
            <mxPoint x="1235" y="-270" as="targetPoint" />
          </mxGeometry>
        </mxCell>
        <mxCell id="l3nvB3DhA1se58afsrXY-305" value="&lt;font style=&quot;font-size: 14px;&quot;&gt;Проверенная ранее связь; проверять повторно не имеет смысла&lt;/font&gt;" style="text;html=1;strokeColor=none;fillColor=none;align=center;verticalAlign=middle;whiteSpace=wrap;rounded=0;" parent="1" vertex="1">
          <mxGeometry x="1052.5" y="-260" width="275" height="50" as="geometry" />
        </mxCell>
        <mxCell id="L-SZdL4b6bI8MSyp7Q2S-1" style="edgeStyle=orthogonalEdgeStyle;rounded=0;orthogonalLoop=1;jettySize=auto;html=1;exitX=0.75;exitY=1;exitDx=0;exitDy=0;entryX=0.5;entryY=0;entryDx=0;entryDy=0;dashed=1;" edge="1" parent="1" source="l3nvB3DhA1se58afsrXY-221" target="l3nvB3DhA1se58afsrXY-224">
          <mxGeometry relative="1" as="geometry">
            <mxPoint x="595" y="185" as="sourcePoint" />
            <mxPoint x="700" y="210" as="targetPoint" />
          </mxGeometry>
        </mxCell>
      </root>
    </mxGraphModel>
  </diagram>
</mxfile>
